/* Created with The GIMP */
#define downdown_width 18
#define downdown_height 18
static unsigned char downdown_bits[] = {
   0x00, 0x00, 0x00, 0x06, 0x80, 0x01, 0x0e, 0xc0, 0x01, 0x0e, 0xc0, 0x01,
   0x3c, 0xf0, 0x00, 0x38, 0x70, 0x00, 0xf2, 0x3c, 0x00, 0xe6, 0x9f, 0x01,
   0xce, 0xcf, 0x01, 0x9e, 0xe7, 0x01, 0x3c, 0xf3, 0x00, 0x38, 0x70, 0x00,
   0xf0, 0x3c, 0x00, 0xe0, 0x1f, 0x00, 0xc0, 0x0f, 0x00, 0x80, 0x07, 0x00,
   0x00, 0x03, 0x00, 0x00, 0x00, 0x00 };
