/* Created with The GIMP */
#define down_width 18
#define down_height 18
static unsigned char down_bits[] = {
   0x00, 0x00, 0x00, 0x00, 0x00, 0x00, 0x00, 0x00, 0x00, 0x00, 0x00, 0x00,
   0x00, 0x00, 0x00, 0x00, 0x00, 0x00, 0x02, 0x00, 0x00, 0x06, 0x80, 0x01,
   0x0e, 0xc0, 0x01, 0x1e, 0xe0, 0x01, 0x3c, 0xf0, 0x00, 0x38, 0x70, 0x00,
   0xf0, 0x3c, 0x00, 0xe0, 0x1f, 0x00, 0xc0, 0x0f, 0x00, 0x80, 0x07, 0x00,
   0x00, 0x03, 0x00, 0x00, 0x00, 0x00 };
