/* XPM */
static char * icon_xpm[] = {
"59 83 256 2",
"  	c None",
". 	c #030204",
"+ 	c #296B9A",
"@ 	c #0C426C",
"# 	c #819EB7",
"$ 	c #503822",
"% 	c #7C6E60",
"& 	c #0C5381",
"* 	c #7A8993",
"= 	c #50545A",
"- 	c #142029",
"; 	c #5486AA",
"> 	c #2D3841",
", 	c #A1BBCD",
"' 	c #536D81",
") 	c #A7875F",
"! 	c #3C200E",
"~ 	c #976D44",
"{ 	c #30546D",
"] 	c #775433",
"^ 	c #A8A09A",
"/ 	c #094873",
"( 	c #7B95A9",
"_ 	c #1A2B37",
": 	c #554632",
"< 	c #2B485C",
"[ 	c #567C97",
"} 	c #23150C",
"| 	c #857B72",
"1 	c #8AAEC4",
"2 	c #375F7C",
"3 	c #3D7BA4",
"4 	c #755E3F",
"5 	c #6B92AC",
"6 	c #1B608F",
"7 	c #1B4A6B",
"8 	c #50606C",
"9 	c #997A50",
"0 	c #6888A0",
"a 	c #0F1315",
"b 	c #8C6C47",
"c 	c #96A1AB",
"d 	c #9D866A",
"e 	c #6D482B",
"f 	c #2B2014",
"g 	c #91959A",
"h 	c #A8AFB5",
"i 	c #2C2C2A",
"j 	c #215274",
"k 	c #473927",
"l 	c #A29589",
"m 	c #687E8E",
"n 	c #B4C6D4",
"o 	c #3D2C1A",
"p 	c #3B4750",
"q 	c #86613C",
"r 	c #1C384A",
"s 	c #466A84",
"t 	c #5F381F",
"u 	c #A77D4F",
"v 	c #4A5258",
"w 	c #15496B",
"x 	c #2D404D",
"y 	c #3F617A",
"z 	c #1A4159",
"A 	c #130C08",
"B 	c #645648",
"C 	c #B3BDC7",
"D 	c #666A6C",
"E 	c #18537B",
"F 	c #221E17",
"G 	c #62482F",
"H 	c #477CA3",
"I 	c #7D7369",
"J 	c #8A8784",
"K 	c #98826C",
"L 	c #758794",
"M 	c #6088A3",
"N 	c #305A78",
"O 	c #805936",
"P 	c #88949C",
"Q 	c #242D34",
"R 	c #607A8D",
"S 	c #95A7B7",
"T 	c #A9B6C0",
"U 	c #4E2C14",
"V 	c #31729C",
"W 	c #8DA8BB",
"X 	c #567387",
"Y 	c #2D4E64",
"Z 	c #1D4E6F",
"` 	c #68605C",
" .	c #90724D",
"..	c #BB9463",
"+.	c #52412F",
"@.	c #7A6654",
"#.	c #8F8C8A",
"$.	c #321A0C",
"%.	c #8A817B",
"&.	c #A07D54",
"*.	c #17130F",
"=.	c #9C938C",
"-.	c #233743",
";.	c #090A0B",
">.	c #19262F",
",.	c #B48C5D",
"'.	c #C69E6A",
").	c #0C4E7C",
"!.	c #9DB0BF",
"~.	c #7D5F3F",
"{.	c #6A8EA8",
"].	c #774E2C",
"^.	c #2A323C",
"/.	c #383F44",
"(.	c #42667C",
"_.	c #4C82A9",
":.	c #97744C",
"<.	c #775A38",
"[.	c #7E9AAF",
"}.	c #1C3242",
"|.	c #361E0D",
"1.	c #747C88",
"2.	c #482C18",
"3.	c #846644",
"4.	c #C39964",
"5.	c #8D9FAD",
"6.	c #125A89",
"7.	c #808E9C",
"8.	c #5B5754",
"9.	c #687684",
"0.	c #3E4044",
"a.	c #613E24",
"b.	c #A9A9AA",
"c.	c #BECCDA",
"d.	c #4C6D84",
"e.	c #226088",
"f.	c #7A828C",
"g.	c #405A6C",
"h.	c #625A54",
"i.	c #2E668C",
"j.	c #506676",
"k.	c #434E56",
"l.	c #626669",
"m.	c #AAC2CC",
"n.	c #769AB4",
"o.	c #2A5A77",
"p.	c #422614",
"q.	c #1F1A14",
"r.	c #54321B",
"s.	c #574E44",
"t.	c #9E8E7C",
"u.	c #9FB6C9",
"v.	c #356D94",
"w.	c #373838",
"x.	c #606C78",
"y.	c #A29F9F",
"z.	c #A0AAB4",
"A.	c #61727F",
"B.	c #9E8E84",
"C.	c #565A5C",
"D.	c #5582A1",
"E.	c #704E31",
"F.	c #6D8294",
"G.	c #403224",
"H.	c #B3C2CF",
"I.	c #856C47",
"J.	c #134E77",
"K.	c #175A89",
"L.	c #222628",
"M.	c #898E91",
"N.	c #9E9A9C",
"O.	c #A29A98",
"P.	c #0E1A1C",
"Q.	c #2E261C",
"R.	c #939A9C",
"S.	c #AB8254",
"T.	c #614E34",
"U.	c #BE9A64",
"V.	c #748EA4",
"W.	c #869AAC",
"X.	c #223240",
"Y.	c #618299",
"Z.	c #161A1C",
"`.	c #332619",
" +	c #4E728C",
".+	c #236694",
"++	c #766A5C",
"@+	c #344652",
"#+	c #6D5436",
"$+	c #74828C",
"%+	c #4A321C",
"&+	c #A8BCCB",
"*+	c #385469",
"=+	c #244861",
"-+	c #595E64",
";+	c #AFAFB1",
">+	c #352B1D",
",+	c #444848",
"'+	c #486073",
")+	c #244055",
"!+	c #827465",
"~+	c #574127",
"{+	c #9F764C",
"]+	c #4A3E34",
"^+	c #A28254",
"/+	c #58381D",
"(+	c #7494AA",
"_+	c #285574",
":+	c #3775A1",
"<+	c #0B0604",
"[+	c #95B1C4",
"}+	c #674124",
"|+	c #988876",
"1+	c #3E6E94",
"2+	c #8A7664",
"3+	c #385A73",
"4+	c #B0B6BD",
"5+	c #364E5C",
"6+	c #244E6B",
"7+	c #333231",
"8+	c #838281",
"9+	c #6C5A44",
"0+	c #596672",
"a+	c #125480",
"b+	c #828688",
"c+	c #565454",
"d+	c #1A2025",
"e+	c #5A6E7C",
"f+	c #AE895D",
"g+	c #0E4971",
"h+	c #82939F",
"i+	c #5A4731",
"j+	c #427EA4",
"k+	c #6E879C",
"l+	c #926C46",
"m+	c #6E7C88",
"n+	c #32404A",
"o+	c #4E7D9E",
"p+	c #9AA8B2",
"q+	c #968E8C",
"r+	c #92806C",
"s+	c #0E0A05",
"t+	c #A2B1BC",
"u+	c #75614E",
"v+	c #977E60",
"w+	c #1E2228",
"x+	c #836E58",
"y+	c #144264",
"z+	c #8D6641",
"A+	c #3A6684",
"B+	c #271A0F",
"C+	c #2E6E9C",
"D+	c #86A0B6",
"E+	c #5A88A7",
"F+	c #32373C",
"G+	c #42220C",
"                                                                                                                      ",
"                                                                                                                      ",
"                                                                                                                      ",
"                                                                                                                      ",
"                                                                                                                      ",
"                                                          / / / @                                                     ",
"                                              & ).).).).& ).).)./ / / @ @ @                                           ",
"                                          a+6.6.& & ).)./ / / / / / / / / @ g+@ @                                     ",
"                                      6 .+6.a+a+& a+& & & & ).)./ ).g+g+g+w w w y+@ y+                                ",
"                                  .+.+.+K.6 6 6 6.6.a+6.& & & ).& ).J.J.a+J.w w w w y+y+y+                            ",
"                                + + 6 .+.+.+6 6 6 6 6.6.a+a+J.J.J.a+E E E E J.Z 7 w Z 7 z z                           ",
"                            V V C+i.+ + .+.+.+6 E J.w w w w w w w w w 7 J.Z j E Z 7 7 7 Z z r                         ",
"                          V :+V V V + C++ e.j Z Z Z w w g+w w w w 7 w 7 Z Z 6+Z 6+j j 6+7 6+=+r                       ",
"                        :+3 :+:+:+V C+i.j Z Z j Z Z Z Z 7 7 w 7 7 Z j j Z j j j j 6+j j 6+w =+=+r                     ",
"                      3 3 3 3 3 3 v.o._+_+j j Z Z j Z j Z Z Z Z Z Z Z j j j Z _+_+j { _+Y =+=+=+z r                   ",
"                      j+3 3 j+j+v.o._+N _+_+_+_+j j j Z Z Z Z Z Z j j j j j j _+_+_+o.{ o._+=+r =+=+}.                ",
"                    j+3 j+_.j+v.N N _+N N _+_+_+_+_+_+j j j j j j j _+_+_+{ j { N o.N N 2 N { r }.6+=+>.              ",
"                  3 _.H _.j+3 3+2 N 2 N N N N N _+_+_+_+_+_+_+j { _+_+N _+N _+N N N N N N 2 2 Y _ -.6+)+-             ",
"                  j+H _._.D.A+2 2 2 2 N N N N N N o.N _+_+=+j { _+N _+N _+2 o.N N 2 2 2 2 2 2 2 )+Q =+Y _             ",
"                j+_.H ; ; H 2 y y 2 2 2 2 2 2 N N { =+)+}.}._ r r =+{ N 2 N o.2 2 2 2 2 y y y y 3+}.r { < P.          ",
"                ; o+; _.; (.y y y 2 y y 2 2 2 2 N =+_ _ _ }.}.r r r )+{ N 2 N 2 2 2 y y A+A+y y y x >.=+*+_           ",
"              o+; o+; D.o+(.A+(.y A+y y y 2 2 3+)+_ _ r =+< 6+{ Y { =+< { 2 2 y y 2 y (.y y A+(.y 2 _ X.3+)+a         ",
"              D.o+; E+E+s (.(.s (.(.A+(.y y y =+>.- r =+=+_ _ )+Y { { *+{ *+2 A+(.A+y (.(.(.(.s (.(.-.>.*+*+a         ",
"            D.E+[ E+E+E+(.s s (.(.(.(.(.A+y < _ - _ a . . . . . . a )+{ { { 3+y (.y s (.s s s s (.(.< >.< 3+_         ",
"            D.E+o+E+E+[ s s s s s s (.s (.@+_ - _ . .               a Q Y 3+{ 2 (.(.s s s s s s d.j.2 >.X.3+x ;.      ",
"            ; M M M M d.d.' d.d.d.s s s < Q - -.. .                     -.5+y g.'+(.s s d.d.d.d.s d.s L._ g.3+.       ",
"            E+[ M M {.d.d.X ' ' d.' d.'+-._ -._ .                         x 3+(.j.s d.d.X ' X ' d.' d.X.>.g.y ;.      ",
"            0 M {.{.{.X X ' X ' X  +d.5+_ ^.*+. .                         *+*+d.d.X ' ' d.X ' X X  + +> d+*+y ;.      ",
"          M {.M 5 {.M X X X X X X X j.x Q @+x .                             y  +X [ [ X X X X X X X X x d+n+'+a       ",
"          E+{.M {.{.0 X X X X X X X s > -.g.Q .                             d.X R M 0 R X X X X X X X @+- @+y a       ",
"          M {.0 {.{.k+R R R R R R A.j.> x g._ .                             [ M m M 0 m R R R R R R X @+d+@+'+;.      ",
"          0 (+{.(+(+{.m m m m R R R j.x n+'+Q .                             [ n.0 (+(+0 m m R m R R R n+d+p '+;.      ",
"          k+(+V.( ( V.m m m F.m m R 0+n+p '+Q .                             0 # k+# [.k+m F.m m+m m R > - k.'+.       ",
"          {.( (+# # ( F.F.$+F.F.F.F.e+/.p ' Q .                             # (+D+D+# F.F.F.$+k+$+F.F.L.- v '+.       ",
"          (+W.( W.# h+* L L L L k+k+e+/.p e+^..                           1 1 # 1 W W.F.L L L L L L A.w+d+0+n+.       ",
"          h+D+W.D+S # * * * * * L L A.p k.e+^..                         [+, W !.!.W V.* * * * 7.* * 0+d+L.j.^..       ",
"          [.W 5.W S 5.7.7.h+7.7.7.* 9.,+v 9.F+.                       u., , [+, !.h+* * 7.7.7.7.7.7.k.d+w.0+;..       ",
"          W.S S p+!.S P P P P P 7.h+m+k.= m > .       !.$+          , n , , , !.5.7.7.h+h+h+P h+h+h+F+a p 0+.         ",
"          5.!.S !.t+p+P P P g g P P 1.v -+$+w..       &+L P 5.S !.H.m.&+m.m.u.5.7.h+P P P P g g P 1.F *.-+/..         ",
"          S !.h h T p+g g g g g g P $+= -+L /..       u.R.5.c c S S T n n C W.P P M.P g g g R.g g v a L.D a .         ",
"          z.T h T 4+z.R.R.g R.g g g L c+l.L /..       u.5.c S z.T H.n c.C p+7.g P g g g g g R.R.J i a 0.= .           ",
"          z.T h 4+4+b.g g g g g g R.b+C.l.M./..       4+c t+H.H.C n n C c P P g R.g g g g g g R.C.a a -+d+.           ",
"          h 4+h C ;+^ #.#.#.#.q+#.g b+C.l.M./..       T c 4+c.c.C H.h c g g W.g g g g g q+g q+8+i ;.^.v .             ",
"          h 4+^ ;+;+y.J J %.J J J #.8+8.l.#.w..       4+c T C C R.g R.g R.g g g g g #.J J J J ,+<+a 8.*..             ",
"          b.;+^ b.^ q+| | !+!+| | %.I c+` #.w..       ;+c h C 4+R.g g g g =.g #.J #.J %.| | B a . i 7+.               ",
"          b.^ t.^ O.|+!+% I !+!+!+!+I s.C.| w..       h N.h C ;+g g g #.g J g J | %.| !+% ` F . *.7+.                 ",
"          N.l |+t.d r+I.I.I.@.x+I x+@.: 8.I i .       b.=.b.;+;+=.#.#.%.#.| #.| !+2+I x+s.q.. <+i ;..                 ",
"          |+t.v+d d 9 !+I.I.b I.I.!+` +.s.% >+.       N.J N.b.b.J J | | | | %.2+% % u+G.A . . q.A .                   ",
"          r+d K d d &.b  .2+ .b b  .u++.i+@.Q..       =.| =.O.O.%.| !+!+!+!+!+x+u+]+F <+. *.Q.A .                     ",
"          r+) u ) f+^+9 9 :.:.9 :. .@.: s.u+i .       |+% %.t.t.!+2+!+I.x+3.h.k F <+. A F >+<+.                       ",
"          v+f+f+,...f+9 ^+K v+v+9 :.I.~+T.~.`..       r+u+2+K K % 4 B ]+G.F *.s+;.A Q.+.`.. .                         ",
"          ^+..,.....,.^+&.u ^+^+&.&.I.G T.3.>+.       9 4 u+9+k q.*.*.*.A A A B+G.: ]+*..                             ",
"          f+U...'.'...^+) ^+^+^+^+&. .: T.I.>+.       v+4 9+i+>+*.*.} Q.>++.: #+: B+. .                               ",
"          ..U...'.'.,.^+&.^+^+^+^+^+ .i+T.I.>+.       ) 4 <.4 9+<.9+4 4 9+#+G.*.. .                                   ",
"          ..'...'.'...^+&.&.&.&.^+&.b : G b >+.       &.4 u+4 4 ~.: k Q.*.. . .                                       ",
"          U.'...'.4.,.9 &.9 9 &.9 ^+ .]+i+I.o .       G.. . . . . . . .                                               ",
"          ..4.,.U...,.:.9 9 9 9 :.9 b k +.I.>+.                                                                       ",
"          ....,.4...f+9 :.:.:.:.9 9 3.k ]+~.>+.                                                                       ",
"          ,...f+,.,.u :.~ l+:.l+~ :.~.G.k ~.>+.                                                                       ",
"          ,.,.S.,.,.u b b b z+b b b ~.o k <.>+.                                                                       ",
"          f+f+u f+S.:.3.q 3.3.b b b ~.o G.] `..                                                                       ",
"          S.S.9 u u :.q q q q q q 3.#+`.o #+>+.                                                                       ",
"          &.{+{+{+{+l+~.~.O <.~.~.q E.Q.>+T.f .                                                                       ",
"          {+{+l+{+~ b O ] <.<.O O O T.f o G `..                                                                       ",
"          ~ :.z+:.~ q ] ] ] ] ] ] O G f `.G f .                                                                       ",
"          l+~ q z+q q ] E.E.E.E.#+] G B+f i+f .                                                                       ",
"          z+q O z+q O E.e e e e e E.a.B+f ~+f .                                                                       ",
"          q q O O O ] G e G G e G e $ } B+/+f .                                                                       ",
"          O O ] O O ].}+}+}+}+G G e $ A B+$ B+.                                                                       ",
"          O ] e ].].e a.a.a.a.a.a.a.%+*.} r.f .                                                                       ",
"          ].].}+].].}+/+/+/+t t a.a.2.A *.2.B+.                                                                       ",
"          ].e a.}+}+}+/+/+/+r./+/+/+o s+A 2.B+.                                                                       ",
"          e }+t }+}+t U U r.U U r.r.p.<+A o B+.                                                                       ",
"          }+t /+U ! } s+s+s+s+s+<+<+. . A p.} s+                                                                      ",
"          a.t U p.$.<+<+<+<+<+<+<+. . . A p.} <+                                                                      ",
"          t U U p.G+G+! ! ! |.$.$.$.$.|.! ! } s+                                                                      ",
"          r.U p.G+G+! ! ! $.! |.|.|.$.$.|.|.} A                                                                       ",
"          G+} A A <+<+. <+. . . . . . <+. <+A <+                                                                      ",
"                                                                                                                      ",
"                                                                                                                      ",
"                                                                                                                      ",
"                                                                                                                      ",
"                                                                                                                      "};
